<?xml version="1.0" encoding="UTF-8"?>
<svg width="16" height="16" viewBox="0 0 16 16" xmlns="http://www.w3.org/2000/svg">
  <style>
    path { fill: #bebebe; }
  </style>
  <!-- Left AirPod -->
  <path d="M3.5 2C2.1 2 1 3.1 1 4.5v4C1 9.9 2.1 11 3.5 11S6 9.9 6 8.5v-4C6 3.1 4.9 2 3.5 2zm0 1c.8 0 1.5.7 1.5 1.5v4c0 .8-.7 1.5-1.5 1.5S2 9.3 2 8.5v-4C2 3.7 2.7 3 3.5 3z"/>
  <path d="M3 11v3c0 .6.4 1 1 1s1-.4 1-1v-3H3z"/>

  <!-- Right AirPod -->
  <path d="M12.5 2C11.1 2 10 3.1 10 4.5v4c0 1.4 1.1 2.5 2.5 2.5s2.5-1.1 2.5-2.5v-4C15 3.1 13.9 2 12.5 2zm0 1c.8 0 1.5.7 1.5 1.5v4c0 .8-.7 1.5-1.5 1.5S11 9.3 11 8.5v-4c0-.8.7-1.5 1.5-1.5z"/>
  <path d="M12 11v3c0 .6.4 1 1 1s1-.4 1-1v-3h-2z"/>
</svg>
